<svg width="24" height="24" viewBox="0 0 24 24" fill="none" xmlns="http://www.w3.org/2000/svg">
<path d="M14 9V15H17" stroke="#384252" stroke-width="2" stroke-linejoin="round"/>
<path d="M19 9V15H22" stroke="#384252" stroke-width="2" stroke-linejoin="round"/>
<path d="M9.5 9C9.92261 9 10.2993 9.26607 10.4414 9.66406L12.7041 16H10.5811L9.5 12.9717L8.41895 16H6.2959L8.55859 9.66406L8.62207 9.52051C8.79527 9.20317 9.1303 9 9.5 9Z" fill="#384252"/>
<path d="M12 2C15.7009 2 18.9299 4.01171 20.6592 7H18.2432C16.777 5.17169 14.5259 4 12 4C7.58172 4 4 7.58172 4 12C4 16.4183 7.58172 20 12 20C14.0282 20 15.879 19.244 17.2891 18H20.001C18.1766 20.429 15.2717 22 12 22C6.47715 22 2 17.5228 2 12C2 6.47715 6.47715 2 12 2Z" fill="#384252"/>
</svg>
