<svg width="24" height="24" viewBox="0 0 24 24" fill="none" xmlns="http://www.w3.org/2000/svg">
<path d="M12.5 21C10.9519 21 9.52792 20.6193 8.22809 19.8579C6.92826 19.0965 5.89863 18.0715 5.13918 16.7829C4.37973 15.4798 4 14.0521 4 12.5C4 10.9479 4.37973 9.52756 5.13918 8.23902C5.89863 6.93583 6.92826 5.90353 8.22809 5.14212C9.52792 4.38071 10.9519 4 12.5 4C14.1211 4 15.5743 4.35874 16.8595 5.07623C18.1594 5.77907 19.1744 6.74548 19.9046 7.97545C20.6349 9.20543 21 10.5672 21 12.0607C21 13.5396 20.6641 14.6817 19.9923 15.4871C19.3204 16.2778 18.4515 16.6731 17.3853 16.6731C16.7573 16.6731 16.2096 16.5194 15.7423 16.2119C15.2749 15.9044 14.9463 15.553 14.7564 15.1576H14.6907C14.5155 15.5383 14.1869 15.8897 13.7049 16.2119C13.2375 16.5194 12.6753 16.6731 12.018 16.6731C11.3754 16.6731 10.7693 16.4974 10.1997 16.146C9.63015 15.7799 9.17741 15.2894 8.8415 14.6744C8.50558 14.0594 8.33763 13.3712 8.33763 12.6098C8.33763 11.8484 8.50558 11.1602 8.8415 10.5452C9.17741 9.93023 9.62285 9.44703 10.1778 9.09561C10.7474 8.72954 11.3535 8.54651 11.9961 8.54651C12.5365 8.54651 13.0039 8.66365 13.3982 8.89793C13.8071 9.11757 14.0992 9.36649 14.2745 9.6447H14.3183V8.65633H16.2242V13.6202C16.2242 13.9862 16.3411 14.2937 16.5747 14.5426C16.8084 14.7916 17.0859 14.916 17.4072 14.916C17.8746 14.916 18.2689 14.6817 18.5902 14.2132C18.9261 13.73 19.0941 13.0125 19.0941 12.0607C19.0941 10.8893 18.8093 9.82773 18.2397 8.87597C17.6847 7.9242 16.9034 7.17743 15.8956 6.63566C14.9025 6.07924 13.7706 5.80103 12.5 5.80103C11.3024 5.80103 10.1997 6.10121 9.19201 6.70155C8.18428 7.28725 7.38101 8.09259 6.78222 9.11757C6.19802 10.1425 5.90593 11.27 5.90593 12.5C5.90593 13.73 6.19802 14.8574 6.78222 15.8824C7.38101 16.9074 8.18428 17.7127 9.19201 18.2984C10.1997 18.8988 11.3024 19.199 12.5 19.199C13.3909 19.199 14.1942 19.0525 14.9098 18.7597C15.64 18.4815 16.1804 18.1593 16.5309 17.7933L17.6263 19.155C17.1881 19.6236 16.509 20.0482 15.5889 20.4289C14.6688 20.8096 13.6392 21 12.5 21ZM12.2809 14.8501C12.8505 14.8501 13.3325 14.6378 13.7268 14.2132C14.1211 13.7885 14.3183 13.2541 14.3183 12.6098C14.3183 11.9655 14.1211 11.4311 13.7268 11.0065C13.3325 10.5672 12.8505 10.3475 12.2809 10.3475C11.7113 10.3475 11.2294 10.5672 10.8351 11.0065C10.4407 11.4311 10.2436 11.9655 10.2436 12.6098C10.2436 13.2541 10.4407 13.7885 10.8351 14.2132C11.2294 14.6378 11.7113 14.8501 12.2809 14.8501Z" fill="#384252"/>
</svg>
