<svg width="144" height="48" viewBox="0 0 144 48" fill="none" xmlns="http://www.w3.org/2000/svg">
<path d="M23.3174 16.0674C23.4522 16.276 23.6604 16.4273 23.9004 16.4912L33.3662 19.0068L27.1875 26.6064C27.0307 26.7993 26.9513 27.0438 26.9648 27.292L27.4971 37.0723L18.3604 33.543C18.1285 33.4534 17.8715 33.4534 17.6396 33.543L8.50195 37.0723L9.03516 27.292C9.04867 27.0438 8.9693 26.7993 8.8125 26.6064L2.63281 19.0068L12.0996 16.4912C12.3396 16.4273 12.5478 16.276 12.6826 16.0674L18 7.8418L23.3174 16.0674Z" fill="url(#paint0_radial_2051_2578)" stroke="#384252" stroke-width="2" stroke-linejoin="round"/>
<path d="M40.3125 32L48.4167 12.6042H48.4583L56.5625 32H53.4167L51.625 27.5625H45.1458L43.3333 32H40.3125ZM46.1667 25.0625H50.5833L49.4583 22.25C49.25 21.7639 49.0556 21.2847 48.875 20.8125C48.7083 20.3403 48.5417 19.7847 48.375 19.1458C48.2083 19.7847 48.0417 20.3403 47.875 20.8125C47.7083 21.2708 47.5208 21.75 47.3125 22.25L46.1667 25.0625Z" fill="#384252"/>
<path d="M58.5625 32V19.5H61.2292V21.7083C61.6736 20.9861 62.2431 20.4167 62.9375 20C63.6319 19.5833 64.4583 19.375 65.4167 19.375L66.0833 22.1042C65.8194 22.0208 65.5208 21.9792 65.1875 21.9792C64.0764 21.9792 63.1806 22.3333 62.5 23.0417C61.8333 23.75 61.5 24.7639 61.5 26.0833V32H58.5625Z" fill="#384252"/>
<path d="M69.513 32V21.875H66.9297V19.5H69.5755V15.3333H72.388V19.5H75.1797V21.875H72.4505V32H69.513Z" fill="#384252"/>
<path d="M77.4505 32V19.5H80.388V32H77.4505ZM78.9297 17.4792C78.4436 17.4792 78.0339 17.3125 77.7005 16.9792C77.3672 16.6319 77.2005 16.2222 77.2005 15.75C77.2005 15.25 77.3672 14.8403 77.7005 14.5208C78.0477 14.1875 78.4575 14.0208 78.9297 14.0208C79.4297 14.0208 79.8394 14.1875 80.1589 14.5208C80.4922 14.8542 80.6589 15.2639 80.6589 15.75C80.6589 16.2361 80.4922 16.6458 80.1589 16.9792C79.8255 17.3125 79.4158 17.4792 78.9297 17.4792Z" fill="#384252"/>
<path d="M89.7246 32.3333C88.4885 32.3333 87.3635 32.0417 86.3496 31.4583C85.3357 30.8611 84.5302 30.0625 83.9329 29.0625C83.3357 28.0625 83.0371 26.9583 83.0371 25.75C83.0371 24.5278 83.3357 23.4236 83.9329 22.4375C84.5302 21.4375 85.3357 20.6458 86.3496 20.0625C87.3635 19.4653 88.4885 19.1667 89.7246 19.1667C90.5996 19.1667 91.426 19.3194 92.2038 19.625C92.9954 19.9167 93.6899 20.3333 94.2871 20.875L93.4746 24.1458C93.1274 23.5208 92.6343 22.9861 91.9954 22.5417C91.3566 22.0833 90.6204 21.8542 89.7871 21.8542C89.0649 21.8542 88.4052 22.0347 87.8079 22.3958C87.2246 22.7431 86.7593 23.2083 86.4121 23.7917C86.0788 24.375 85.9121 25.0278 85.9121 25.75C85.9121 26.4583 86.0788 27.1111 86.4121 27.7083C86.7593 28.2917 87.2246 28.7639 87.8079 29.125C88.4052 29.4722 89.0649 29.6458 89.7871 29.6458C90.6204 29.6458 91.3566 29.4236 91.9954 28.9792C92.6343 28.5347 93.1274 27.9931 93.4746 27.3542L94.2871 30.625C93.6899 31.1667 92.9954 31.5903 92.2038 31.8958C91.426 32.1875 90.5996 32.3333 89.7246 32.3333Z" fill="#384252"/>
<path d="M96.6107 32V12H99.5482V32H96.6107Z" fill="#384252"/>
<path d="M109.156 32.3333C107.808 32.3333 106.607 32.0417 105.551 31.4583C104.496 30.875 103.669 30.0764 103.072 29.0625C102.489 28.0486 102.197 26.9028 102.197 25.625C102.197 24.4028 102.482 23.3056 103.051 22.3333C103.635 21.3611 104.413 20.5903 105.385 20.0208C106.371 19.4514 107.454 19.1667 108.635 19.1667C109.829 19.1667 110.906 19.4444 111.864 20C112.836 20.5556 113.607 21.3125 114.176 22.2708C114.746 23.2153 115.031 24.2917 115.031 25.5V26.6042H107.135C106.788 26.6042 106.44 26.5903 106.093 26.5625C105.746 26.5208 105.399 26.4722 105.051 26.4167C105.218 27.375 105.676 28.1736 106.426 28.8125C107.19 29.4514 108.121 29.7708 109.218 29.7708C110.01 29.7708 110.732 29.6042 111.385 29.2708C112.038 28.9236 112.572 28.4792 112.989 27.9375L113.697 30.8542C113.086 31.3403 112.392 31.7083 111.614 31.9583C110.836 32.2083 110.017 32.3333 109.156 32.3333ZM104.989 24.5417C105.711 24.4028 106.426 24.3333 107.135 24.3333H110.301C110.649 24.3333 110.982 24.3472 111.301 24.375C111.635 24.4028 111.954 24.4375 112.26 24.4792C112.051 23.6319 111.614 22.9444 110.947 22.4167C110.294 21.875 109.517 21.6042 108.614 21.6042C107.739 21.6042 106.968 21.8819 106.301 22.4375C105.635 22.9931 105.197 23.6944 104.989 24.5417Z" fill="#384252"/>
<path d="M117.537 32V19.5H120.204V21.7083C120.648 20.9861 121.218 20.4167 121.912 20C122.607 19.5833 123.433 19.375 124.391 19.375L125.058 22.1042C124.794 22.0208 124.495 21.9792 124.162 21.9792C123.051 21.9792 122.155 22.3333 121.475 23.0417C120.808 23.75 120.475 24.7639 120.475 26.0833V32H117.537Z" fill="#384252"/>
<defs>
<radialGradient id="paint0_radial_2051_2578" cx="0" cy="0" r="1" gradientUnits="userSpaceOnUse" gradientTransform="translate(34 46.5) rotate(-125.538) scale(38.7105)">
<stop stop-color="#F9F871"/>
<stop offset="0.653577" stop-color="#FFC75F"/>
<stop offset="1" stop-color="#FF9671"/>
</radialGradient>
</defs>
</svg>
