<svg width="125" height="33" viewBox="0 0 125 33" fill="none" xmlns="http://www.w3.org/2000/svg">
<path d="M22.4364 10.0674C22.5713 10.276 22.7794 10.4273 23.0194 10.4912L32.4852 13.0068L26.3065 20.6064C26.1497 20.7993 26.0703 21.0438 26.0839 21.292L26.6161 31.0723L17.4794 27.543C17.2475 27.4534 16.9905 27.4534 16.7587 27.543L7.62097 31.0723L8.15417 21.292C8.16769 21.0438 8.08831 20.7993 7.93152 20.6064L1.75183 13.0068L11.2186 10.4912C11.4587 10.4273 11.6668 10.276 11.8016 10.0674L17.119 1.8418L22.4364 10.0674Z" stroke="#384252" stroke-width="2" stroke-linejoin="round"/>
<path d="M17.119 18L23.619 10L17.119 2.5L11.119 11L2.11902 13.5L8.61902 21L7.61902 31L17.119 26.5V18Z" fill="#384252"/>
<path d="M39.4315 26L47.5357 6.60417H47.5774L55.6815 26H52.5357L50.744 21.5625H44.2649L42.4524 26H39.4315ZM45.2857 19.0625H49.7024L48.5774 16.25C48.369 15.7639 48.1746 15.2847 47.994 14.8125C47.8274 14.3403 47.6607 13.7847 47.494 13.1458C47.3274 13.7847 47.1607 14.3403 46.994 14.8125C46.8274 15.2708 46.6399 15.75 46.4315 16.25L45.2857 19.0625Z" fill="#384252"/>
<path d="M57.6815 26V13.5H60.3482V15.7083C60.7926 14.9861 61.3621 14.4167 62.0565 14C62.751 13.5833 63.5774 13.375 64.5357 13.375L65.2024 16.1042C64.9385 16.0208 64.6399 15.9792 64.3065 15.9792C63.1954 15.9792 62.2996 16.3333 61.619 17.0417C60.9524 17.75 60.619 18.7639 60.619 20.0833V26H57.6815Z" fill="#384252"/>
<path d="M68.632 26V15.875H66.0487V13.5H68.6945V9.33333H71.507V13.5H74.2987V15.875H71.5695V26H68.632Z" fill="#384252"/>
<path d="M76.5695 26V13.5H79.507V26H76.5695ZM78.0487 11.4792C77.5626 11.4792 77.1529 11.3125 76.8195 10.9792C76.4862 10.6319 76.3195 10.2222 76.3195 9.75C76.3195 9.25 76.4862 8.84028 76.8195 8.52083C77.1668 8.1875 77.5765 8.02083 78.0487 8.02083C78.5487 8.02083 78.9584 8.1875 79.2779 8.52083C79.6112 8.85417 79.7779 9.26389 79.7779 9.75C79.7779 10.2361 79.6112 10.6458 79.2779 10.9792C78.9445 11.3125 78.5348 11.4792 78.0487 11.4792Z" fill="#384252"/>
<path d="M88.8436 26.3333C87.6075 26.3333 86.4825 26.0417 85.4686 25.4583C84.4547 24.8611 83.6492 24.0625 83.052 23.0625C82.4547 22.0625 82.1561 20.9583 82.1561 19.75C82.1561 18.5278 82.4547 17.4236 83.052 16.4375C83.6492 15.4375 84.4547 14.6458 85.4686 14.0625C86.4825 13.4653 87.6075 13.1667 88.8436 13.1667C89.7186 13.1667 90.545 13.3194 91.3228 13.625C92.1145 13.9167 92.8089 14.3333 93.4061 14.875L92.5936 18.1458C92.2464 17.5208 91.7533 16.9861 91.1145 16.5417C90.4756 16.0833 89.7395 15.8542 88.9061 15.8542C88.1839 15.8542 87.5242 16.0347 86.927 16.3958C86.3436 16.7431 85.8783 17.2083 85.5311 17.7917C85.1978 18.375 85.0311 19.0278 85.0311 19.75C85.0311 20.4583 85.1978 21.1111 85.5311 21.7083C85.8783 22.2917 86.3436 22.7639 86.927 23.125C87.5242 23.4722 88.1839 23.6458 88.9061 23.6458C89.7395 23.6458 90.4756 23.4236 91.1145 22.9792C91.7533 22.5347 92.2464 21.9931 92.5936 21.3542L93.4061 24.625C92.8089 25.1667 92.1145 25.5903 91.3228 25.8958C90.545 26.1875 89.7186 26.3333 88.8436 26.3333Z" fill="#384252"/>
<path d="M95.7297 26V6H98.6672V26H95.7297Z" fill="#384252"/>
<path d="M108.275 26.3333C106.927 26.3333 105.726 26.0417 104.67 25.4583C103.615 24.875 102.789 24.0764 102.191 23.0625C101.608 22.0486 101.316 20.9028 101.316 19.625C101.316 18.4028 101.601 17.3056 102.17 16.3333C102.754 15.3611 103.532 14.5903 104.504 14.0208C105.49 13.4514 106.573 13.1667 107.754 13.1667C108.948 13.1667 110.025 13.4444 110.983 14C111.955 14.5556 112.726 15.3125 113.295 16.2708C113.865 17.2153 114.15 18.2917 114.15 19.5V20.6042H106.254C105.907 20.6042 105.559 20.5903 105.212 20.5625C104.865 20.5208 104.518 20.4722 104.17 20.4167C104.337 21.375 104.795 22.1736 105.545 22.8125C106.309 23.4514 107.24 23.7708 108.337 23.7708C109.129 23.7708 109.851 23.6042 110.504 23.2708C111.157 22.9236 111.691 22.4792 112.108 21.9375L112.816 24.8542C112.205 25.3403 111.511 25.7083 110.733 25.9583C109.955 26.2083 109.136 26.3333 108.275 26.3333ZM104.108 18.5417C104.83 18.4028 105.545 18.3333 106.254 18.3333H109.42C109.768 18.3333 110.101 18.3472 110.42 18.375C110.754 18.4028 111.073 18.4375 111.379 18.4792C111.17 17.6319 110.733 16.9444 110.066 16.4167C109.414 15.875 108.636 15.6042 107.733 15.6042C106.858 15.6042 106.087 15.8819 105.42 16.4375C104.754 16.9931 104.316 17.6944 104.108 18.5417Z" fill="#384252"/>
<path d="M116.656 26V13.5H119.323V15.7083C119.767 14.9861 120.337 14.4167 121.031 14C121.726 13.5833 122.552 13.375 123.51 13.375L124.177 16.1042C123.913 16.0208 123.614 15.9792 123.281 15.9792C122.17 15.9792 121.274 16.3333 120.594 17.0417C119.927 17.75 119.594 18.7639 119.594 20.0833V26H116.656Z" fill="#384252"/>
</svg>

