<svg width="254" height="96" viewBox="0 0 254 96" fill="none" xmlns="http://www.w3.org/2000/svg">
<path fill-rule="evenodd" clip-rule="evenodd" d="M47.4757 29.7514C48.0154 30.5863 48.8467 31.1903 49.8076 31.4456L64.2584 35.2859C67.0639 36.0314 68.166 39.4232 66.3344 41.6754L56.9006 53.2759C56.2733 54.0473 55.9558 55.0246 56.0099 56.0173L56.8234 70.9464C56.9814 73.8451 54.096 75.9414 51.388 74.8953L37.4413 69.5079C36.5138 69.1497 35.4862 69.1497 34.5587 69.5079L20.612 74.8953C17.904 75.9414 15.0186 73.8451 15.1766 70.9464L15.9901 56.0173C16.0442 55.0246 15.7267 54.0473 15.0994 53.2759L5.66556 41.6754C3.83402 39.4232 4.93606 36.0314 7.74159 35.2859L22.1924 31.4456C23.1533 31.1903 23.9846 30.5863 24.5243 29.7514L32.6408 17.1962C34.2168 14.7584 37.7832 14.7584 39.3592 17.1962L47.4757 29.7514ZM36.8954 46.8978C36.3162 47.6108 36 48.5014 36 49.42V63.4811C36 64.2951 36.682 64.9274 37.4414 65.2207L47.0569 68.9336C49.7648 69.9792 52.6497 67.8831 52.4919 64.9848L51.9316 54.6914C51.8778 53.6992 52.1955 52.7222 52.8223 51.9512L59.3256 43.9527C61.1568 41.7004 60.0546 38.3089 57.2493 37.5634L47.2871 34.916C46.9761 34.8333 46.6361 34.9078 46.4331 35.1576L36.8954 46.8978Z" fill="#384252"/>
<path d="M179.449 38.334C181.199 38.334 182.853 38.6389 184.408 39.25C185.57 39.678 186.627 40.2408 187.579 40.938C188.218 41.4055 188.455 42.2291 188.264 42.997L188.011 44.0187C187.631 45.5467 185.283 45.9831 183.99 45.084C182.712 44.1674 181.241 43.709 179.574 43.709C178.13 43.709 176.81 44.0688 175.615 44.791C174.449 45.4854 173.519 46.4174 172.824 47.584C172.158 48.7505 171.824 50.0558 171.824 51.5C171.824 52.9165 172.158 54.2217 172.824 55.416C173.519 56.5825 174.449 57.5278 175.615 58.25C176.81 58.9444 178.13 59.291 179.574 59.291C181.241 59.291 182.713 58.8475 183.99 57.959C185.281 57.0608 187.64 57.4876 188.019 59.014L188.268 60.0167C188.457 60.7762 188.221 61.59 187.592 62.0553C186.636 62.7621 185.575 63.3406 184.408 63.791C182.853 64.3743 181.199 64.666 179.449 64.666C176.977 64.666 174.727 64.0827 172.699 62.916C170.672 61.7216 169.06 60.1249 167.865 58.125C166.671 56.1251 166.074 53.9165 166.074 51.5C166.074 49.0557 166.671 46.8471 167.865 44.875C169.06 42.875 170.671 41.2917 172.699 40.125C174.727 38.9306 176.977 38.334 179.449 38.334Z" fill="#384252"/>
<path fill-rule="evenodd" clip-rule="evenodd" d="M217.27 38.334C219.658 38.334 221.812 38.8889 223.729 40C225.673 41.111 227.215 42.6246 228.354 44.541C229.492 46.4299 230.061 48.5833 230.061 51C230.061 52.22 229.072 53.209 227.852 53.209H214.27C213.575 53.209 212.88 53.1806 212.186 53.125C211.163 53.0023 210.289 53.9019 210.717 54.8388C211.199 55.8936 211.911 56.8223 212.854 57.625C214.381 58.9024 216.242 59.5409 218.436 59.541C220.019 59.541 221.464 59.2077 222.77 58.541C224.263 57.7466 226.571 58.3167 226.97 59.9606L227.063 60.3415C227.265 61.1754 226.974 62.0657 226.247 62.5217C225.322 63.1018 224.316 63.5664 223.229 63.916C221.673 64.416 220.033 64.666 218.311 64.666C215.616 64.6659 213.214 64.0825 211.104 62.916C208.992 61.7493 207.339 60.1528 206.145 58.125C204.978 56.0972 204.395 53.8056 204.395 51.25C204.395 48.8056 204.965 46.6105 206.104 44.666C207.27 42.7219 208.825 41.1798 210.77 40.041C212.742 38.9022 214.909 38.334 217.27 38.334ZM217.229 43.209C215.479 43.209 213.937 43.7641 212.604 44.875C212.414 45.0328 212.234 45.1965 212.063 45.3662C210.631 46.7874 212.252 48.666 214.27 48.666H220.604C221.298 48.666 221.965 48.6945 222.604 48.75C223.525 48.8268 224.275 47.9771 223.843 47.1593C223.368 46.262 222.719 45.4868 221.895 44.834C220.589 43.7508 219.034 43.2091 217.229 43.209Z" fill="#384252"/>
<path fill-rule="evenodd" clip-rule="evenodd" d="M111.451 59.9948C112.247 61.8992 110.848 64 108.784 64C107.606 64 106.545 63.2845 106.104 62.1917L104.26 57.6272C103.65 56.115 102.182 55.125 100.551 55.125H92.978C91.353 55.125 89.8895 56.1081 89.275 57.6125L87.372 62.2715C86.9451 63.3168 85.9281 64 84.7989 64C82.8142 64 81.4691 61.98 82.2342 60.1488L96.8182 25.2468C96.8278 25.2239 96.8502 25.209 96.875 25.209C96.8998 25.209 96.9222 25.2239 96.9318 25.2468L111.451 59.9948ZM97.75 41.625C97.4386 40.7427 96.0614 40.7427 95.75 41.625C95.4167 42.5417 95.0417 43.5 94.625 44.5L94.0054 46.0214C93.2072 47.9811 94.6489 50.125 96.7649 50.125C98.8729 50.125 100.314 47.9959 99.5315 46.0387L98.916 44.5C98.4994 43.5279 98.1111 42.5694 97.75 41.625Z" fill="#384252"/>
<path d="M131.736 42.4453C131.925 43.2193 131.172 43.959 130.375 43.959C128.153 43.959 126.361 44.6673 125 46.084C123.667 47.5005 123 49.5277 123 52.166V61.0625C123 62.6848 121.685 64 120.062 64C118.44 64 117.125 62.6848 117.125 61.0625V41.667C117.125 40.1941 118.319 39 119.792 39H121.485C122.023 39 122.459 39.4362 122.459 39.9743C122.459 40.9567 123.941 41.4481 124.701 40.8257C125.07 40.5234 125.461 40.2481 125.875 40C126.831 39.4267 127.911 39.0506 129.117 38.8717C130.117 38.7232 131.003 39.4413 131.242 40.4238L131.736 42.4453Z" fill="#384252"/>
<path d="M144.775 36.208C144.775 37.75 146.025 39 147.567 39H147.984C149.296 39 150.359 40.0633 150.359 41.375C150.359 42.6867 149.296 43.75 147.984 43.75H147.63C146.122 43.75 144.9 44.972 144.9 46.4795V61.0625C144.9 62.6848 143.585 64 141.963 64C140.341 64 139.025 62.6848 139.025 61.0625V46.333C139.025 44.9065 137.869 43.75 136.442 43.75H136.234C134.923 43.75 133.859 42.6867 133.859 41.375C133.859 40.0633 134.923 39 136.234 39H136.505C137.966 39 139.15 37.8156 139.15 36.3545V33.4785C139.15 31.9252 140.41 30.666 141.963 30.666C143.516 30.666 144.775 31.9252 144.775 33.4785V36.208Z" fill="#384252"/>
<path d="M160.775 61.0625C160.775 62.6848 159.46 64 157.838 64C156.216 64 154.9 62.6848 154.9 61.0625V41.9375C154.9 40.3152 156.216 39 157.838 39C159.46 39 160.775 40.3152 160.775 41.9375V61.0625Z" fill="#384252"/>
<path d="M199.096 61.0625C199.096 62.6848 197.781 64 196.158 64C194.536 64 193.221 62.6848 193.221 61.0625V26.9375C193.221 25.3152 194.536 24 196.158 24C197.781 24 199.096 25.3152 199.096 26.9375V61.0625Z" fill="#384252"/>
<path d="M249.685 42.4453C249.874 43.2193 249.121 43.959 248.324 43.959C246.102 43.959 244.31 44.6673 242.949 46.084C241.616 47.5005 240.949 49.5277 240.949 52.166V61.0625C240.949 62.6848 239.634 64 238.012 64C236.389 64 235.074 62.6848 235.074 61.0625V41.667C235.074 40.1941 236.268 39 237.741 39H239.434C239.972 39 240.408 39.4362 240.408 39.9743C240.408 40.9567 241.89 41.4481 242.65 40.8257C243.019 40.5234 243.411 40.2481 243.824 40C244.78 39.4267 245.861 39.0506 247.066 38.8717C248.066 38.7232 248.952 39.4413 249.192 40.4238L249.685 42.4453Z" fill="#384252"/>
<path d="M157.859 28.041C158.859 28.041 159.679 28.3744 160.318 29.041C160.985 29.7077 161.318 30.5278 161.318 31.5C161.318 32.4722 160.985 33.2923 160.318 33.959C159.652 34.6257 158.832 34.959 157.859 34.959C156.887 34.959 156.067 34.6257 155.4 33.959C154.734 33.2645 154.4 32.4444 154.4 31.5C154.4 30.5 154.734 29.6799 155.4 29.041C156.095 28.3743 156.915 28.041 157.859 28.041Z" fill="#384252"/>
</svg>
