<svg width="348" height="200" viewBox="0 0 348 200" fill="none" xmlns="http://www.w3.org/2000/svg">
<rect width="347.333" height="200" rx="4" fill="url(#paint0_linear_2102_1950)"/>
<path fill-rule="evenodd" clip-rule="evenodd" d="M134.738 90.8757C135.008 91.2931 135.423 91.5951 135.904 91.7228L143.129 93.6429C144.532 94.0157 145.083 95.7116 144.167 96.8377L139.45 102.638C139.137 103.024 138.978 103.512 139.005 104.009L139.412 111.473C139.491 112.923 138.048 113.971 136.694 113.448L129.721 110.754C129.257 110.575 128.743 110.575 128.279 110.754L121.306 113.448C119.952 113.971 118.509 112.923 118.588 111.473L118.995 104.009C119.022 103.512 118.863 103.024 118.55 102.638L113.833 96.8377C112.917 95.7116 113.468 94.0157 114.871 93.6429L122.096 91.7228C122.577 91.5951 122.992 91.2931 123.262 90.8757L127.32 84.5981C128.108 83.3792 129.892 83.3792 130.68 84.5981L134.738 90.8757ZM129.448 99.4489C129.158 99.8054 129 100.251 129 100.71V107.741C129 108.148 129.341 108.464 129.721 108.61L134.528 110.467C135.882 110.99 137.325 109.942 137.246 108.492L136.966 103.346C136.939 102.85 137.098 102.361 137.411 101.976L140.663 97.9763C141.578 96.8502 141.027 95.1545 139.625 94.7817L134.644 93.458C134.488 93.4167 134.318 93.4539 134.217 93.5788L129.448 99.4489Z" fill="white"/>
<path d="M200.725 95.167C201.6 95.167 202.426 95.3194 203.204 95.625C203.785 95.839 204.313 96.1204 204.79 96.469C205.109 96.7028 205.228 97.1145 205.132 97.4985L205.005 98.0093C204.815 98.7734 203.641 98.9916 202.995 98.542C202.356 98.0837 201.62 97.8545 200.787 97.8545C200.065 97.8545 199.405 98.0344 198.808 98.3955C198.224 98.7427 197.759 99.2087 197.412 99.792C197.079 100.375 196.912 101.028 196.912 101.75C196.912 102.458 197.079 103.111 197.412 103.708C197.759 104.291 198.224 104.764 198.808 105.125C199.405 105.472 200.065 105.646 200.787 105.646C201.62 105.646 202.356 105.424 202.995 104.979C203.641 104.53 204.82 104.744 205.009 105.507L205.134 106.008C205.228 106.388 205.111 106.795 204.796 107.028C204.318 107.381 203.788 107.67 203.204 107.896C202.426 108.187 201.6 108.333 200.725 108.333C199.488 108.333 198.363 108.041 197.35 107.458C196.336 106.861 195.53 106.062 194.933 105.062C194.335 104.063 194.037 102.958 194.037 101.75C194.037 100.528 194.335 99.4236 194.933 98.4375C195.53 97.4375 196.336 96.6458 197.35 96.0625C198.363 95.4653 199.488 95.167 200.725 95.167Z" fill="white"/>
<path fill-rule="evenodd" clip-rule="evenodd" d="M219.635 95.167C220.829 95.167 221.906 95.4444 222.864 96C223.836 96.5555 224.607 97.3123 225.177 98.2705C225.746 99.215 226.03 100.292 226.03 101.5C226.03 102.11 225.536 102.604 224.926 102.604H218.135C217.788 102.604 217.44 102.59 217.093 102.562C216.581 102.501 216.145 102.951 216.359 103.419C216.6 103.947 216.956 104.411 217.427 104.812C218.191 105.451 219.121 105.77 220.218 105.771C221.009 105.771 221.732 105.604 222.385 105.271C223.131 104.873 224.286 105.158 224.485 105.98L224.531 106.171C224.633 106.588 224.487 107.033 224.123 107.261C223.661 107.551 223.158 107.783 222.614 107.958C221.836 108.208 221.016 108.333 220.155 108.333C218.808 108.333 217.607 108.041 216.552 107.458C215.496 106.875 214.669 106.076 214.072 105.062C213.489 104.049 213.197 102.903 213.197 101.625C213.197 100.403 213.482 99.3052 214.052 98.333C214.635 97.361 215.413 96.5899 216.385 96.0205C217.371 95.4511 218.454 95.167 219.635 95.167ZM219.614 97.6045C218.739 97.6045 217.968 97.8821 217.302 98.4375C217.207 98.5164 217.117 98.5983 217.032 98.6831C216.316 99.3937 217.126 100.333 218.135 100.333H221.302C221.649 100.333 221.982 100.347 222.302 100.375C222.763 100.413 223.137 99.9886 222.921 99.5796C222.684 99.131 222.36 98.7434 221.947 98.417C221.295 97.8754 220.517 97.6046 219.614 97.6045Z" fill="white"/>
<path fill-rule="evenodd" clip-rule="evenodd" d="M166.726 105.997C167.124 106.95 166.424 108 165.392 108C164.803 108 164.273 107.642 164.052 107.096L163.13 104.814C162.825 104.058 162.091 103.562 161.276 103.562H157.489C156.676 103.562 155.945 104.054 155.637 104.806L154.686 107.136C154.473 107.658 153.964 108 153.399 108C152.407 108 151.735 106.99 152.117 106.074L159.409 88.6234C159.414 88.612 159.425 88.6045 159.438 88.6045C159.45 88.6045 159.461 88.612 159.466 88.6234L166.726 105.997ZM159.875 96.8125C159.719 96.3714 159.031 96.3714 158.875 96.8125C158.708 97.2708 158.521 97.75 158.312 98.25L158.003 99.0107C157.604 99.9905 158.324 101.062 159.382 101.062C160.436 101.062 161.157 99.998 160.766 99.0193L160.458 98.25C160.25 97.7639 160.056 97.2847 159.875 96.8125Z" fill="white"/>
<path d="M176.868 97.2227C176.962 97.6097 176.586 97.9795 176.188 97.9795C175.076 97.9795 174.181 98.3337 173.5 99.042C172.833 99.7503 172.5 100.764 172.5 102.083V106.531C172.5 107.342 171.842 108 171.031 108C170.22 108 169.562 107.342 169.562 106.531V96.8335C169.562 96.097 170.16 95.5 170.896 95.5H171.742C172.011 95.5 172.229 95.7181 172.229 95.9871C172.229 96.4783 172.97 96.7241 173.35 96.4129C173.535 96.2617 173.731 96.1241 173.938 96C174.415 95.7133 174.956 95.5253 175.558 95.4358C176.059 95.3616 176.501 95.7207 176.621 96.2119L176.868 97.2227Z" fill="white"/>
<path d="M183.388 94.104C183.388 94.875 184.013 95.5 184.784 95.5H184.992C185.648 95.5 186.18 96.0317 186.18 96.6875C186.18 97.3433 185.648 97.875 184.992 97.875H184.815C184.061 97.875 183.45 98.486 183.45 99.2397V106.531C183.45 107.342 182.793 108 181.981 108C181.17 108 180.513 107.342 180.513 106.531V99.1665C180.513 98.4532 179.934 97.875 179.221 97.875H179.117C178.461 97.875 177.93 97.3433 177.93 96.6875C177.93 96.0317 178.461 95.5 179.117 95.5H179.252C179.983 95.5 180.575 94.9078 180.575 94.1772V92.7393C180.575 91.9626 181.205 91.333 181.981 91.333C182.758 91.333 183.388 91.9626 183.388 92.7393V94.104Z" fill="white"/>
<path d="M191.388 106.531C191.388 107.342 190.73 108 189.919 108C189.108 108 188.45 107.342 188.45 106.531V96.9688C188.45 96.1576 189.108 95.5 189.919 95.5C190.73 95.5 191.388 96.1576 191.388 96.9688V106.531Z" fill="white"/>
<path d="M210.548 106.531C210.548 107.342 209.89 108 209.079 108C208.268 108 207.61 107.342 207.61 106.531V89.4688C207.61 88.6576 208.268 88 209.079 88C209.89 88 210.548 88.6576 210.548 89.4688V106.531Z" fill="white"/>
<path d="M235.842 97.2227C235.937 97.6097 235.56 97.9795 235.162 97.9795C234.051 97.9795 233.155 98.3337 232.475 99.042C231.808 99.7503 231.475 100.764 231.475 102.083V106.531C231.475 107.342 230.817 108 230.006 108C229.195 108 228.537 107.342 228.537 106.531V96.8335C228.537 96.097 229.134 95.5 229.871 95.5H230.717C230.986 95.5 231.204 95.7181 231.204 95.9871C231.204 96.4783 231.945 96.7241 232.325 96.4129C232.51 96.2617 232.705 96.1241 232.912 96C233.39 95.7133 233.93 95.5253 234.533 95.4358C235.033 95.3616 235.476 95.7207 235.596 96.2119L235.842 97.2227Z" fill="white"/>
<path d="M189.93 90.0205C190.43 90.0205 190.84 90.1872 191.159 90.5205C191.493 90.8538 191.659 91.2639 191.659 91.75C191.659 92.2361 191.493 92.6462 191.159 92.9795C190.826 93.3128 190.416 93.4795 189.93 93.4795C189.444 93.4795 189.034 93.3128 188.7 92.9795C188.367 92.6323 188.2 92.2222 188.2 91.75C188.2 91.25 188.367 90.84 188.7 90.5205C189.047 90.1872 189.457 90.0205 189.93 90.0205Z" fill="white"/>
<defs>
<linearGradient id="paint0_linear_2102_1950" x1="183.647" y1="19.5" x2="511.707" y2="379.874" gradientUnits="userSpaceOnUse">
<stop stop-color="#384252"/>
<stop offset="1" stop-color="#8292AA"/>
</linearGradient>
</defs>
</svg>
