<svg width="24" height="24" viewBox="0 0 24 24" fill="none" xmlns="http://www.w3.org/2000/svg">
<path d="M14 4.25195H13C13 4.70824 13.3089 5.10666 13.7507 5.22039L14 4.25195ZM16.0625 5.1084L15.5539 5.96938C15.9467 6.20143 16.4467 6.13821 16.7694 5.81572L16.0625 5.1084ZM17.6572 3.51465L18.3643 2.80754C17.9739 2.4171 17.3409 2.41701 16.9503 2.80733L17.6572 3.51465ZM20.4854 6.34277L21.1922 7.0501C21.3799 6.86258 21.4853 6.6082 21.4854 6.34293C21.4854 6.07766 21.38 5.82324 21.1925 5.63567L20.4854 6.34277ZM18.8906 7.93652L18.1837 7.2292C17.8608 7.5519 17.7975 8.0523 18.0297 8.4453L18.8906 7.93652ZM19.748 10L18.7796 10.2493C18.8933 10.6911 19.2918 11 19.748 11V10ZM22 10H23C23 9.44772 22.5523 9 22 9V10ZM22 14V15C22.5523 15 23 14.5523 23 14H22ZM19.748 14V13C19.2918 13 18.8933 13.3089 18.7796 13.7507L19.748 14ZM18.8906 16.0625L18.0297 15.5538C17.7975 15.9467 17.8608 16.4469 18.1835 16.7696L18.8906 16.0625ZM20.4854 17.6572L21.1925 18.3643C21.583 17.9738 21.583 17.3406 21.1925 16.9501L20.4854 17.6572ZM17.6572 20.4854L16.9501 21.1925C17.3406 21.583 17.9738 21.583 18.3643 21.1925L17.6572 20.4854ZM16.0625 18.8906L16.7696 18.1835C16.4469 17.8608 15.9467 17.7975 15.5538 18.0297L16.0625 18.8906ZM14 19.7471L13.7507 18.7786C13.3088 18.8924 13 19.2908 13 19.7471H14ZM14 22V23C14.5523 23 15 22.5523 15 22H14ZM10 22H9C9 22.5523 9.44772 23 10 23V22ZM10 19.7471H11C11 19.2908 10.6912 18.8924 10.2493 18.7786L10 19.7471ZM7.93652 18.8906L8.4453 18.0297C8.0523 17.7975 7.5519 17.8608 7.2292 18.1837L7.93652 18.8906ZM6.34277 20.4854L5.63567 21.1925C5.82324 21.38 6.07766 21.4854 6.34293 21.4854C6.6082 21.4853 6.86258 21.3799 7.0501 21.1922L6.34277 20.4854ZM3.51465 17.6572L2.80733 16.9503C2.41701 17.3409 2.4171 17.9739 2.80754 18.3643L3.51465 17.6572ZM5.1084 16.0625L5.81572 16.7694C6.13821 16.4467 6.20143 15.9467 5.96938 15.5539L5.1084 16.0625ZM4.25195 14L5.22039 13.7507C5.10666 13.3089 4.70824 13 4.25195 13V14ZM2 14H1C1 14.5523 1.44772 15 2 15V14ZM2 10V9C1.44772 9 1 9.44772 1 10H2ZM4.25195 10V11C4.70824 11 5.10666 10.6911 5.22039 10.2493L4.25195 10ZM5.1084 7.93652L5.96933 8.44525C6.20149 8.05235 6.1382 7.55211 5.81551 7.22942L5.1084 7.93652ZM3.51465 6.34277L2.80754 5.63567C2.41702 6.02619 2.41702 6.65936 2.80754 7.04988L3.51465 6.34277ZM6.34277 3.51465L7.04988 2.80754C6.65936 2.41702 6.02619 2.41702 5.63567 2.80754L6.34277 3.51465ZM7.93652 5.1084L7.22942 5.81551C7.55211 6.1382 8.05235 6.20149 8.44525 5.96933L7.93652 5.1084ZM10 4.25195L10.2493 5.22039C10.6911 5.10666 11 4.70824 11 4.25195H10ZM10 2V1C9.44772 1 9 1.44772 9 2H10ZM14 2H15C15 1.44772 14.5523 1 14 1V2ZM14 4.25195L13.7507 5.22039C14.3907 5.3851 14.996 5.63979 15.5539 5.96938L16.0625 5.1084L16.5711 4.24742C15.8562 3.82506 15.0768 3.49652 14.2493 3.28352L14 4.25195ZM16.0625 5.1084L16.7694 5.81572L18.3641 4.22197L17.6572 3.51465L16.9503 2.80733L15.3556 4.40108L16.0625 5.1084ZM17.6572 3.51465L16.9501 4.22176L19.7782 7.04988L20.4854 6.34277L21.1925 5.63567L18.3643 2.80754L17.6572 3.51465ZM20.4854 6.34277L19.7785 5.63545L18.1837 7.2292L18.8906 7.93652L19.5975 8.64385L21.1922 7.0501L20.4854 6.34277ZM18.8906 7.93652L18.0297 8.4453C18.3598 9.00376 18.6149 9.6092 18.7796 10.2493L19.748 10L20.7165 9.75074C20.5033 8.92238 20.1741 8.14278 19.7515 7.42775L18.8906 7.93652ZM19.748 10V11H22V10V9H19.748V10ZM22 10H21V14H22H23V10H22ZM22 14V13H19.748V14V15H22V14ZM19.748 14L18.7796 13.7507C18.615 14.3901 18.3598 14.9951 18.0297 15.5538L18.8906 16.0625L19.7516 16.5712C20.1737 15.8568 20.5033 15.0777 20.7165 14.2493L19.748 14ZM18.8906 16.0625L18.1835 16.7696L19.7782 18.3643L20.4854 17.6572L21.1925 16.9501L19.5977 15.3554L18.8906 16.0625ZM20.4854 17.6572L19.7782 16.9501L16.9501 19.7782L17.6572 20.4854L18.3643 21.1925L21.1925 18.3643L20.4854 17.6572ZM17.6572 20.4854L18.3643 19.7782L16.7696 18.1835L16.0625 18.8906L15.3554 19.5977L16.9501 21.1925L17.6572 20.4854ZM16.0625 18.8906L15.5538 18.0297C14.9959 18.3593 14.3908 18.6139 13.7507 18.7786L14 19.7471L14.2493 20.7155C15.0769 20.5025 15.8561 20.1741 16.5712 19.7516L16.0625 18.8906ZM14 19.7471H13V22H14H15V19.7471H14ZM14 22V21H10V22V23H14V22ZM10 22H11V19.7471H10H9V22H10ZM10 19.7471L10.2493 18.7786C9.6085 18.6137 9.00296 18.3593 8.4453 18.0297L7.93652 18.8906L7.42775 19.7515C8.14344 20.1745 8.92325 20.5025 9.75071 20.7155L10 19.7471ZM7.93652 18.8906L7.2292 18.1837L5.63545 19.7785L6.34277 20.4854L7.0501 21.1922L8.64385 19.5975L7.93652 18.8906ZM6.34277 20.4854L7.04988 19.7782L4.22176 16.9501L3.51465 17.6572L2.80754 18.3643L5.63567 21.1925L6.34277 20.4854ZM3.51465 17.6572L4.22197 18.3641L5.81572 16.7694L5.1084 16.0625L4.40108 15.3556L2.80733 16.9503L3.51465 17.6572ZM5.1084 16.0625L5.96938 15.5539C5.63979 14.996 5.3851 14.3907 5.22039 13.7507L4.25195 14L3.28352 14.2493C3.49652 15.0768 3.82506 15.8562 4.24742 16.5711L5.1084 16.0625ZM4.25195 14V13H2V14V15H4.25195V14ZM2 14H3V10H2H1V14H2ZM2 10V11H4.25195V10V9H2V10ZM4.25195 10L5.22039 10.2493C5.38528 9.60863 5.63978 9.00295 5.96933 8.44525L5.1084 7.93652L4.24747 7.4278C3.82465 8.14336 3.49649 8.92328 3.28352 9.75074L4.25195 10ZM5.1084 7.93652L5.81551 7.22942L4.22176 5.63567L3.51465 6.34277L2.80754 7.04988L4.40129 8.64363L5.1084 7.93652ZM3.51465 6.34277L4.22176 7.04988L7.04988 4.22176L6.34277 3.51465L5.63567 2.80754L2.80754 5.63567L3.51465 6.34277ZM6.34277 3.51465L5.63567 4.22176L7.22942 5.81551L7.93652 5.1084L8.64363 4.40129L7.04988 2.80754L6.34277 3.51465ZM7.93652 5.1084L8.44525 5.96933C9.00295 5.63978 9.60863 5.38528 10.2493 5.22039L10 4.25195L9.75074 3.28352C8.92328 3.49649 8.14336 3.82465 7.4278 4.24747L7.93652 5.1084ZM10 4.25195H11V2H10H9V4.25195H10ZM10 2V3H14V2V1H10V2ZM14 2H13V4.25195H14H15V2H14Z" fill="#384252"/>
<circle cx="12" cy="12" r="3" stroke="#384252" stroke-width="2" stroke-linejoin="round"/>
</svg>
